Exact Audio Copy V0.99 prebeta 1 from 25. May 2007

EAC 抓取日志文件从13. 三月 2011, 22:12

群星 / 军旅歌坛名人集1

使用驱动器  ：PIONEER DVD-RW  DVR-115   Adapter: 0  ID: 0

读取模式     : 保护
使用精确流   : 是
废除音频缓冲 : 是
使用 C2 指针 : 否

组合读/写偏移校正              : 48
读取 Lead-In 和 Lead-Out       : 否
用静音填充抓取中丢失偏移的采样 : 是
去除首尾静音块                 : 否
已用接口                       : Win NT 及 2000 本地 Win32 接口

所用输出格式 : 内部 WAV 函数
样本格式     : 44.100 Hz;16 Bit;立体声
使用压缩偏移 : 48


被抓轨 CD 的 TOC

     音轨 |   开始   |   长度   | 起始扇区 | 结尾扇区 
    --------------------------------------------------
       1  |  0:00.00 |  2:44.22 |       0  |   12321  
       2  |  2:44.22 |  1:33.13 |   12322  |   19309  
       3  |  4:17.35 |  2:06.20 |   19310  |   28779  
       4  |  6:23.55 |  5:28.50 |   28780  |   53429  
       5  | 11:52.30 |  4:41.15 |   53430  |   74519  
       6  | 16:33.45 |  3:51.55 |   74520  |   91899  
       7  | 20:25.25 |  1:49.07 |   91900  |  100081  
       8  | 22:14.32 |  2:05.40 |  100082  |  109496  
       9  | 24:19.72 |  2:27.08 |  109497  |  120529  
      10  | 26:47.05 |  2:20.72 |  120530  |  131101  
      11  | 29:08.02 |  2:13.65 |  131102  |  141141  
      12  | 31:21.67 |  3:20.00 |  141142  |  156141  
      13  | 34:41.67 |  5:11.58 |  156142  |  179524  
      14  | 39:53.50 |  6:03.47 |  179525  |  206796  
      15  | 45:57.22 |  4:01.20 |  206797  |  224891  
      16  | 49:58.42 |  2:46.03 |  224892  |  237344  
      17  | 52:44.45 |  1:59.47 |  237345  |  246316  
      18  | 54:44.17 |  2:25.73 |  246317  |  257264  
      19  | 57:10.15 |  3:29.47 |  257265  |  272986  
      20  | 60:39.62 |  2:43.50 |  272987  |  285261  
      21  | 63:23.37 |  2:37.55 |  285262  |  297091  


范围状态及错误

已选择范围

     文件名 E:\20世纪中华歌坛名人百集珍藏版-军旅歌坛名人集1[lwg188原创]\群星 - 军旅歌坛名人集1.wav

     峰值电平 100.0 %
     范围质量 99.9 %
     复制 CRC 2B3D45B7
     复制成功

没有错误发生

状态报告结尾
